<svg version="1.0" xmlns="http://www.w3.org/2000/svg" width="2222.66667" height="1662.66667" viewBox="0 0 1667 1247">
  <path d="M813.1 468.6C793 474 780 492.2 780 515c0 9 1.7 15.9 7.1 29.2l3.9 9.9-.2 30.2-.3 30.2h-33l-.3-5.2c-.3-4.5 0-5.4 2.1-6.8 3-1.9 4.7-5.6 4.7-9.9 0-7.3-8.4-12.4-15.3-9.1-7.2 3.4-8.5 12.4-2.7 18 2.8 2.7 3 3.3 3 10.9 0 4.5.4 8.7.8 9.4.7.9 6.3 1.2 24.8 1l23.9-.3.5-26 .5-26 2.5 6.5c2.4 6.4 2.4 7.2 2.8 41.2l.3 34.8h-11.3c-11.3 0-11.3 0-14.1-3-2.4-2.5-3.7-3-7.4-3-5.5 0-7.8 1.2-9.8 5-6 11.6 8.3 22.3 17.3 12.9l2.7-2.9h14.1c11.4 0 14.4-.3 15.4-1.5s1.3-10.3 1.4-38.3c.1-43 .5-40.8-12.1-67.7-12-25.6-14.6-35.7-12.3-47.1 2.7-13.3 10.5-24.1 20.8-28.7 7.3-3.2 19.1-3.5 26.6-.7 10.6 4 18.8 13.8 22.2 26.5 3.3 12.2.8 23.4-10.4 47.2-13.6 28.6-12.7 23.6-13 68.6-.2 28.6 0 39.3.9 40.3.9 1.1 4.3 1.4 15.1 1.4h14l2.8 2.9c5.2 5.2 13.5 4.6 17-1.2 4.9-8 .2-16.6-9.2-16.7-3.9 0-5.1.5-7.5 3-2.8 3-2.8 3-14.1 3h-11.3l.3-34.3c.4-33.5.4-34.3 2.8-40.7l2.5-6.5.5 25.5.5 25.5 23.4.3c16.4.2 23.8-.1 24.7-.9 1-.8 1.4-3.6 1.4-9.6 0-8.1.1-8.5 3-10.9 8.7-7.3.8-21.8-10.1-18.5-8.1 2.4-10.8 12.1-4.9 17.9 2.6 2.7 3 3.8 3 8.6v5.6l-16.2-.2-16.3-.3-.3-30.2-.2-30.2 4-9.4c5.4-12.8 7.3-20.6 7.2-30.7 0-10.6-2.7-19.5-8.3-27.9-10.1-15.2-29.1-22.3-46.8-17.5z"/>
  <path d="M820 643.1v50l-3 2.5c-3.5 3-4.8 8.1-2.9 12.5 1.4 3.5 6.2 6.9 9.7 6.9 3.1 0 7.7-2.5 9.6-5.2 3.1-4.4 1.5-12.3-3.1-15.3L828 693V593h-8v50.1zM702 744v9h4c3.9 0 4.2.3 10.3 8.5l6.2 8.5h4.8c2.6 0 4.7-.3 4.7-.7 0-.4-2.7-4.2-6-8.5-3.3-4.2-6-8.1-6-8.6s2.7-4.4 6-8.7c3.3-4.3 6-7.9 6-8.1 0-.2-2.2-.4-4.8-.4h-4.8l-5.5 7.5c-2.9 4.1-5.7 7.5-6.1 7.5-.5 0-.8-3.4-.8-7.5V735h-8v9zM745.4 736.4c-.3.8-.4 2.5-.2 3.8.3 2.2.8 2.3 10.2 2.8 8.1.4 10.1.8 11 2.3.9 1.5.7 2.2-1.3 3.8-1.9 1.6-3.9 1.9-11.2 1.9h-9l.3 9.2.3 9.3h8l.3-5.8c.3-5.5.4-5.7 3.2-5.7 2.4 0 3.4.9 6.5 6l3.6 6h5c2.7 0 4.9-.2 4.9-.6 0-.3-1.7-3.1-3.9-6.2l-3.8-5.7 2.8-2.6c2.5-2.3 2.9-3.4 2.9-8.2 0-9.5-3.7-11.6-20.3-11.7-6.7 0-8.9.3-9.3 1.4zM795.2 750.2c-8.4 21.7-8.2 19.8-2.9 19.8h4.5l4.3-12.4c2.4-6.9 4.6-12.3 4.8-12 .3.3 2.4 5.8 4.7 12.2l4.1 11.7 4.8.3c4.2.3 4.7.1 4.1-1.5-.4-1-3.4-8.9-6.8-17.6l-6.1-15.7h-9.6l-5.9 15.2zM851.6 743c-5.9 7.8-6.1 8-10.3 8H837v19.1l4.3-.3 4.2-.3.5-7.5.5-7.4 5.5 7.7 5.5 7.7h5.4c4.1 0 5.1-.3 4.4-1.3-.5-.6-3.2-4.1-5.9-7.7-2.8-3.6-5.4-7.1-5.8-7.8-.5-.8 1.2-4 4.6-8.5 7.8-10.3 7.6-9.7 2.1-9.7l-4.8.1-5.9 7.9zM891 735.9c-8.9 1.8-11.5 5.6-11.5 16.6 0 12.9 3.4 16.1 18.5 17.2l9 .6V762h-7.5c-6.2 0-7.9-.4-9.5-2-3.4-3.4-2.4-4 7-4h9v-7h-9c-4.9 0-9-.4-9-.8 0-.5 1-1.8 2.3-3 1.7-1.6 3.7-2.2 9.2-2.4l7-.3v-7l-6-.2c-3.3 0-7.6.2-9.5.6zM923.5 736.2c-.3.8-.4 8.6-.3 17.3l.3 16 3.7.3 3.7.3.3-11.8.3-11.8 6.1 11.5 6.1 11.5 5.2.3 5.1.3v-35.2l-3.7.3-3.8.3-.3 11-.3 11-5.7-11-5.7-11-5.3-.3c-3.7-.2-5.4.1-5.7 1z"/>
</svg>
